<?xml version="1.0" encoding="UTF-8"?>
<svg id="a" data-name="Layer 1" xmlns="http://www.w3.org/2000/svg" viewBox="0 0 897.14 673.22">
  <defs>
    <style>
      .b {
        fill: #fff;
      }
    </style>
  </defs>
  <path class="b" d="m175.13,44.11C211.13-3.89,283.3.11,283.3.11h335.83c76-3,113,55,113,55l145,190c21,25,20,75,20,75v236c-7,125-120,117-120,117H122.13C-8.87,668.11.13,553.11.13,553.11v-240c0-40,20-67,20-67L175.13,44.11Zm-76,230s-21,22,6,27h220.3s26.7,0,29.7,29v19.57s6,80.28,95,80.85c0,0,79,1.57,92-80.43v-21.02s3-27.98,31-27.98h221s18-2,9-21l-132-174s-15-32-59-36h-329s-36,4-51,28l-133,176Z"/>
</svg>