<svg width="20" height="20" viewBox="0 0 20 20" fill="none" xmlns="http://www.w3.org/2000/svg">
<g id="icnSearch">
<path id="Union" fill-rule="evenodd" clip-rule="evenodd" d="M14.5 8C14.5 11.0376 12.0376 13.5 9 13.5C5.96243 13.5 3.5 11.0376 3.5 8C3.5 4.96243 5.96243 2.5 9 2.5C12.0376 2.5 14.5 4.96243 14.5 8ZM12.8997 13.814C11.7853 14.563 10.4437 15 9 15C5.13401 15 2 11.866 2 8C2 4.13401 5.13401 1 9 1C12.866 1 16 4.13401 16 8C16 9.70022 15.3938 11.2589 14.3858 12.4716L18.2071 16.2929C18.5976 16.6834 18.5976 17.3166 18.2071 17.7071C17.8166 18.0976 17.1834 18.0976 16.7929 17.7071L12.8997 13.814Z" fill="#8E8E92" style="fill:#8E8E92;fill:#8E8E92;fill-opacity:1;"/>
</g>
</svg>
