<?xml version="1.0" encoding="UTF-8"?>
<svg id="a" data-name="Layer 1" xmlns="http://www.w3.org/2000/svg" viewBox="0 0 1024 759.12">
  <defs>
    <style>
      .b {
        fill: #fff;
      }
    </style>
  </defs>
  <circle class="b" cx="78.16" cy="78.16" r="78.16"/>
  <circle class="b" cx="78.16" cy="379.02" r="78.16"/>
  <circle class="b" cx="78.16" cy="680.96" r="78.16"/>
  <path class="b" d="m321.21,134.91c-32.97-2.61-57.14-31.46-54.6-62.1,2.3-27.72,25.96-50.84,55.68-52.46h646.69c31.06,1.99,55.2,28.32,54.6,58.89-.61,31.32-26.99,57.06-58.89,56.75l-643.48-1.07Z"/>
  <path class="b" d="m321.62,437.91c-32.97-2.61-57.14-31.46-54.6-62.1,2.3-27.72,25.96-50.84,55.68-52.46h646.69c31.06,1.99,55.2,28.32,54.6,58.89-.61,31.32-26.99,57.06-58.89,56.75l-643.48-1.07Z"/>
  <path class="b" d="m321.62,740.91c-32.97-2.61-57.14-31.46-54.6-62.1,2.3-27.72,25.96-50.84,55.68-52.46h646.69c31.06,1.99,55.2,28.32,54.6,58.89-.61,31.32-26.99,57.06-58.89,56.75l-643.48-1.07Z"/>
</svg>