<?xml version="1.0" encoding="UTF-8"?>
<svg id="b" data-name="Layer 1" xmlns="http://www.w3.org/2000/svg" viewBox="0 0 914.24 835.28">
  <defs>
    <style>
      .c {
        fill: #fff;
      }
    </style>
  </defs>
  <path class="c" d="m2.44,130.33S2.44,4.33,140.44,1.33s637.5,0,637.5,0c0,0,134.47,1.5,135.73,129s0,565.5,0,565.5c0,0,5.27,138-138.73,139s-631.82,0-631.82,0c0,0-135.18-.6-140.68-126.8s0-577.7,0-577.7Zm100.5,560.34c10,45.84,46,43.16,46,43.16,0,0,582,3,623,0s41.14-46,41.14-46c0,0,1.86-380,0-419s-45.14-43-45.14-43c0,0-578-3-620,0s-45,43-45,43v421.84Z"/>
  <path class="c" d="m352.94,324.83s-2-18,15-18,40.03,0,40.03,0c0,0,13.59,1,13.28,18s0,32.73,0,32.73c0,0,1.69,16.27-14.31,16.27s-38.29,0-38.29,0c0,0-15.86-.15-15.79-15.07s.07-33.93.07-33.93Z"/>
  <path class="c" d="m495.7,325.33s-2-18,15-18,40.03,0,40.03,0c0,0,13.59,1,13.28,18-.31,17,0,32.73,0,32.73,0,0,1.69,16.27-14.31,16.27h-38.29s-15.86-.15-15.79-15.07.07-33.93.07-33.93Z"/>
  <path class="c" d="m637.7,325.33s-2-18,15-18,40.03,0,40.03,0c0,0,13.59,1,13.28,18s0,32.73,0,32.73c0,0,1.69,16.27-14.31,16.27h-38.29s-15.86-.15-15.79-15.07.07-33.93.07-33.93Z"/>
  <path class="c" d="m494.7,464.33s-2-18,15-18h40.03s13.59,1,13.28,18,0,32.73,0,32.73c0,0,1.69,16.27-14.31,16.27h-38.29s-15.86-.15-15.79-15.07.07-33.93.07-33.93Z"/>
  <path class="c" d="m637.7,464.33s-2-18,15-18h40.03s13.59,1,13.28,18,0,32.73,0,32.73c0,0,1.69,16.27-14.31,16.27h-38.29s-15.86-.15-15.79-15.07.07-33.93.07-33.93Z"/>
  <path class="c" d="m211.94,464.33s-2-18,15-18h40.03s13.59,1,13.28,18,0,32.73,0,32.73c0,0,1.69,16.27-14.31,16.27h-38.29s-15.86-.15-15.79-15.07.07-33.93.07-33.93Z"/>
  <path class="c" d="m352.94,464.33s-2-18,15-18h40.03s13.59,1,13.28,18,0,32.73,0,32.73c0,0,1.69,16.27-14.31,16.27h-38.29s-15.86-.15-15.79-15.07.07-33.93.07-33.93Z"/>
  <path class="c" d="m211.94,605.33s-2-18,15-18h40.03s13.59,1,13.28,18,0,32.73,0,32.73c0,0,1.69,16.27-14.31,16.27h-38.29s-15.86-.15-15.79-15.07.07-33.93.07-33.93Z"/>
  <path class="c" d="m352.94,605.33s-2-18,15-18h40.03s13.59,1,13.28,18,0,32.73,0,32.73c0,0,1.69,16.27-14.31,16.27h-38.29s-15.86-.15-15.79-15.07.07-33.93.07-33.93Z"/>
  <path class="c" d="m495.44,605.33s-2-18,15-18h40.03s13.59,1,13.28,18,0,32.73,0,32.73c0,0,1.69,16.27-14.31,16.27h-38.29s-15.86-.15-15.79-15.07.07-33.93.07-33.93Z"/>
</svg>