<?xml version="1.0" encoding="UTF-8"?>
<svg id="a" data-name="Layer 1" xmlns="http://www.w3.org/2000/svg" viewBox="0 0 1024 1024">
  <defs>
    <style>
      .b {
        fill: #fff;
      }
    </style>
  </defs>
  <path class="b" d="m512,1023.5c-69.05,0-136.04-13.52-199.1-40.2-60.91-25.76-115.61-62.64-162.59-109.62-46.98-46.97-83.86-101.68-109.62-162.59C14.02,648.04.5,581.05.5,512s13.52-136.04,40.2-199.1c25.76-60.91,62.64-115.61,109.62-162.59,46.98-46.98,101.68-83.86,162.59-109.62C375.96,14.02,442.95.5,512,.5s136.04,13.52,199.1,40.2c60.91,25.76,115.61,62.64,162.59,109.62,46.98,46.98,83.86,101.68,109.62,162.59,26.67,63.06,40.2,130.05,40.2,199.1s-13.52,136.04-40.2,199.1c-25.76,60.91-62.64,115.61-109.62,162.59-46.97,46.98-101.68,83.86-162.59,109.62-63.06,26.67-130.05,40.2-199.1,40.2Z"/>
  <path d="m512,1c68.98,0,135.91,13.51,198.9,40.16,60.85,25.74,115.5,62.58,162.43,109.51,46.93,46.93,83.77,101.58,109.51,162.43,26.65,63,40.16,129.92,40.16,198.9s-13.51,135.91-40.16,198.9c-25.74,60.85-62.58,115.5-109.51,162.43-46.93,46.93-101.58,83.77-162.43,109.51-63,26.65-129.92,40.16-198.9,40.16s-135.91-13.51-198.9-40.16c-60.85-25.74-115.5-62.58-162.43-109.51-46.93-46.93-83.77-101.58-109.51-162.43C14.51,647.91,1,580.98,1,512s13.51-135.91,40.16-198.9c25.74-60.85,62.58-115.5,109.51-162.43,46.93-46.93,101.58-83.77,162.43-109.51C376.09,14.51,443.02,1,512,1m0-1C229.23,0,0,229.23,0,512s229.23,512,512,512,512-229.23,512-512S794.77,0,512,0h0Z"/>
</svg>