<svg width="18" height="17" viewBox="0 0 18 17" fill="none" xmlns="http://www.w3.org/2000/svg">
<path id="icn" fill-rule="evenodd" clip-rule="evenodd" d="M0 2C0 0.89543 0.895431 0 2 0H16C17.1046 0 18 0.895431 18 2V15C18 16.1046 17.1046 17 16 17H2C0.895431 17 0 16.1046 0 15V2ZM1.90002 4.77778C1.90002 4.22549 2.34774 3.77778 2.90002 3.77778H15.1C15.6523 3.77778 16.1 4.22549 16.1 4.77778V14.0556C16.1 14.6078 15.6523 15.0556 15.1 15.0556H2.90002C2.34774 15.0556 1.90002 14.6078 1.90002 14.0556V4.77778ZM13 9.47426C13 11.3634 12.1461 12.5 10.729 12.5C9.86448 12.5 9.20195 12.096 8.98229 11.5416C8.93977 11.4347 8.91851 11.3356 8.91851 11.2327C8.91851 10.9238 9.10275 10.6743 9.44287 10.6743C9.70151 10.6743 9.84322 10.801 10.0239 10.995C10.2578 11.2604 10.4597 11.3871 10.7857 11.3871C11.4907 11.3871 11.7706 10.599 11.7564 9.55347V9.49406H11.7352C11.5651 10.0366 11.0903 10.4168 10.4066 10.4168C9.47476 10.4168 8.70948 9.69208 8.70948 8.56337C8.70948 7.35149 9.5775 6.5 10.7644 6.5C11.6005 6.5 12.2666 6.89604 12.6705 7.74752C12.8795 8.19109 13 8.78515 13 9.47426ZM9.96014 8.50396C9.96014 9.02673 10.3074 9.39109 10.7715 9.39109C11.2427 9.39109 11.597 9.03069 11.597 8.52376C11.597 8.00891 11.2391 7.61287 10.7821 7.61287C10.3215 7.61287 9.96014 8.00099 9.96014 8.50396ZM7.71391 11.7317C7.71391 12.1673 7.45527 12.4485 7.06909 12.4485C6.68291 12.4485 6.42073 12.1673 6.42073 11.7317V7.92574H6.39593L5.75819 8.42079C5.64128 8.51188 5.56333 8.54356 5.43933 8.54356C5.18778 8.54356 5 8.33366 5 8.04059C5 7.83069 5.0744 7.66832 5.25864 7.52574L6.22586 6.78911C6.49867 6.58317 6.71833 6.55149 6.97343 6.55149C7.4411 6.55149 7.71391 6.86436 7.71391 7.36337V11.7317Z" fill="white" style="fill:white;fill:white;fill-opacity:1;"/>
</svg>
